<svg xmlns="http://www.w3.org/2000/svg" version="1.1" xmlns:xlink="http://www.w3.org/1999/xlink" xmlns:svgjs="http://svgjs.dev/svgjs" width="425" height="600"><svg xmlns="http://www.w3.org/2000/svg" viewBox="300 240 425 600">
  <path d="M504.646 240.586C513.168 240.146 519.869 240.252 527.741 243.88C537.333 248.3 546.449 254.461 555.547 259.831C574.276 270.886 592.861 282.202 611.682 293.098L673.638 328.712C684.412 334.841 700.161 342.773 709.629 350.087C715.224 354.409 719.101 360.165 721.47 366.8C722.513 369.723 722.899 372.461 723.033 375.542C723.709 390.975 723.005 406.632 723.096 422.096L723.23 534.229L723.125 612.548C723.146 625.214 723.813 638.053 723.253 650.693C723.087 654.446 722.179 657.681 720.566 661.061C717.513 667.46 713.809 672.687 708.103 676.94C702.32 681.251 695.587 684.676 689.355 688.332L647.318 712.506L571.411 756.628C555.509 765.987 537.13 779.034 520.122 785.185C513.644 787.423 503.122 785.154 497.116 782.309C483.783 775.993 468.907 765.92 455.896 758.386Q410.385 732.464 365.514 705.446C353.677 698.357 341.424 691.948 329.581 684.838C324.7 681.908 319.597 679.061 315.134 675.517C309.585 671.112 305.009 664.678 302.682 657.983C301.524 654.651 301.129 651.434 300.999 647.933C300.393 631.59 300.896 615.036 300.908 598.672L301.129 497.842L300.974 418.4C300.921 404.052 300.308 389.455 301.046 375.134C301.266 370.855 302.373 367.129 304.28 363.321C307.011 357.871 310.607 352.762 315.58 349.146C324.247 342.846 334.564 337.907 343.82 332.452Q379.671 311.368 415.859 290.87C436.33 279.053 456.459 266.666 477.045 255.045C486.245 249.852 494.536 244.012 504.646 240.586ZM508.299 256.099C493.066 263.087 478.619 272.734 464.136 281.189L395.791 320.665L346.777 349.261C339.867 353.311 332.211 356.885 325.726 361.555C321.855 364.342 319.391 366.719 317.759 371.341C315.151 378.727 316.522 430.467 316.529 441.01L316.568 545.256L316.531 611.839C316.521 623.924 316.153 636.124 316.646 648.191C316.777 651.388 317.48 654.356 319.011 657.201C320.318 659.629 322.619 662.249 324.901 663.806C333.871 669.926 344 675.129 353.405 680.608L410.209 713.685L474.4 751.111C482.038 755.601 499.787 767.768 507.152 769.677C510.679 770.591 514.134 770.369 517.683 769.737C527.53 764.909 536.867 758.83 546.385 753.376C571.951 738.727 597.17 723.45 622.553 708.485L673.684 678.443C681.543 673.836 690.227 669.642 697.63 664.383C701.791 661.428 704.595 658.887 706.328 653.93C707.337 651.043 707.674 648.012 707.795 644.975C708.385 630.194 707.773 615.246 707.645 600.451L707.681 538.416L707.856 434.57C707.879 416.812 708.34 398.95 707.9 381.202C707.825 378.168 707.821 372.895 706.508 370.211C704.393 365.888 700.816 362.771 696.891 360.148C686.628 353.288 674.954 348.076 664.275 341.814L564.302 283.477L532.857 265.24C528.032 262.397 522.848 258.026 517.453 256.495C514.478 255.651 511.341 255.884 508.299 256.099Z" style="fill: rgb(0, 139, 139);"></path>
  <path d="M503.88 303.919C529.755 301.116 554.862 310.072 574.918 326.314C593.039 340.99 607.14 366.102 609.3 389.433C610.528 402.703 609.803 419.036 609.937 432.653Q592.711 432.462 575.483 432.545C575.239 404.228 579.469 380.065 557.034 358.14C547.464 348.787 534.802 341.822 521.388 340.124C516.848 339.55 512.25 339.847 507.698 339.539L511.801 338.604C512.671 327.236 511.984 315.271 511.958 303.845C509.236 304.009 506.605 304.05 503.88 303.919Z" style="fill: rgb(95, 158, 160);"></path>
  <path d="M414.284 432.44C414.293 418.26 413.346 403.202 414.93 389.149C417.215 368.879 427.441 348.567 441.441 333.844C457.215 317.255 480.66 304.412 503.88 303.919C506.605 304.05 509.236 304.009 511.958 303.845C511.984 315.271 512.671 327.236 511.801 338.604L507.698 339.539C491.979 340.471 477.921 347.442 466.838 358.638C445.838 379.849 449.065 405.187 449.08 432.597Q431.682 432.428 414.284 432.44Z" style="fill: rgb(32, 178, 170);"></path>
  <path d="M367.798 443.989L512.052 443.938L512.017 479.543C512.015 485.46 512.521 491.738 511.788 497.596C510.601 497.886 509.429 498.163 508.225 498.379C496.866 499.569 486.39 504.745 479.171 513.747Q478.532 514.559 477.932 515.402Q477.333 516.244 476.776 517.114Q476.218 517.985 475.704 518.881Q475.19 519.778 474.719 520.698Q474.249 521.619 473.824 522.561Q473.399 523.504 473.02 524.465Q472.642 525.427 472.31 526.406Q471.979 527.385 471.695 528.379Q471.412 529.373 471.177 530.38Q470.942 531.387 470.757 532.404Q470.571 533.421 470.435 534.445Q470.299 535.47 470.213 536.5Q470.127 537.53 470.091 538.563Q470.056 539.596 470.07 540.63Q470.085 541.663 470.149 542.695Q470.214 543.727 470.329 544.754C471.725 556.981 477.813 566.059 487.089 573.772C484.328 588.977 480.676 604.02 478.046 619.243C489.36 619.645 500.703 619.239 512.025 619.359L511.962 691.605C511.967 703.669 512.831 716.737 511.957 728.694C511.841 730.281 511.823 730.64 510.929 731.965C500.845 726.879 491.218 720.285 481.466 714.545L421.233 679.221Q409.372 672.183 397.38 665.369C391.117 661.807 381.868 657.659 376.783 652.81C372.669 648.887 369.038 643.89 368.111 638.18C367.14 632.201 367.82 625.189 367.827 619.111L367.871 581.455L367.798 443.989Z" style="fill: rgb(32, 178, 170);"></path>
  <path d="M512.052 443.938L656.781 443.911L656.612 581.933L656.703 618.285C656.751 624.978 657.394 632.252 656.564 638.866C656.032 643.113 653.219 647.857 650.251 650.842C643.297 657.838 631.497 663.328 622.899 668.335L579.204 693.503L537.734 717.543C530.828 721.584 524.032 725.986 516.985 729.761C515.098 730.772 513.103 731.875 510.929 731.965C511.823 730.64 511.841 730.281 511.957 728.694C512.831 716.737 511.967 703.669 511.962 691.605L512.025 619.359C500.703 619.239 489.36 619.645 478.046 619.243C480.676 604.02 484.328 588.977 487.089 573.772C477.813 566.059 471.725 556.981 470.329 544.754Q470.214 543.727 470.149 542.695Q470.085 541.663 470.07 540.63Q470.056 539.596 470.091 538.563Q470.127 537.53 470.213 536.5Q470.299 535.47 470.435 534.445Q470.571 533.421 470.757 532.404Q470.942 531.387 471.177 530.38Q471.412 529.373 471.695 528.379Q471.979 527.385 472.31 526.406Q472.642 525.427 473.02 524.465Q473.399 523.504 473.824 522.561Q474.249 521.619 474.719 520.698Q475.19 519.778 475.704 518.881Q476.218 517.985 476.776 517.114Q477.333 516.244 477.932 515.402Q478.532 514.559 479.171 513.747C486.39 504.745 496.866 499.569 508.225 498.379C509.429 498.163 510.601 497.886 511.788 497.596C512.521 491.738 512.015 485.46 512.017 479.543L512.052 443.938Z" style="fill: rgb(95, 158, 160);"></path>
  <path fill="#171D27" d="M508.225 498.379C521.489 498.377 532.894 501.298 542.552 510.918Q543.27 511.642 543.952 512.401Q544.633 513.16 545.276 513.952Q545.92 514.744 546.523 515.566Q547.127 516.388 547.689 517.24Q548.251 518.091 548.771 518.968Q549.291 519.846 549.767 520.748Q550.242 521.651 550.673 522.575Q551.104 523.5 551.489 524.445Q551.874 525.389 552.211 526.352Q552.549 527.314 552.839 528.292Q553.129 529.27 553.371 530.261Q553.612 531.252 553.804 532.254Q553.997 533.256 554.14 534.266Q554.282 535.276 554.375 536.292Q554.468 537.308 554.511 538.327Q554.554 539.346 554.546 540.366C554.477 551.487 549.541 562.067 541.619 569.78Q539.391 571.911 537.094 573.968C540.229 588.859 544.016 604.055 546.005 619.119L512.025 619.359C500.703 619.239 489.36 619.645 478.046 619.243C480.676 604.02 484.328 588.977 487.089 573.772C477.813 566.059 471.725 556.981 470.329 544.754Q470.214 543.727 470.149 542.695Q470.085 541.663 470.07 540.63Q470.056 539.596 470.091 538.563Q470.127 537.53 470.213 536.5Q470.299 535.47 470.435 534.445Q470.571 533.421 470.757 532.404Q470.942 531.387 471.177 530.38Q471.412 529.373 471.695 528.379Q471.979 527.385 472.31 526.406Q472.642 525.427 473.02 524.465Q473.399 523.504 473.824 522.561Q474.249 521.619 474.719 520.698Q475.19 519.778 475.704 518.881Q476.218 517.985 476.776 517.114Q477.333 516.244 477.932 515.402Q478.532 514.559 479.171 513.747C486.39 504.745 496.866 499.569 508.225 498.379Z"></path>
</svg><style>@media (prefers-color-scheme: light) { :root { filter: none; } }
@media (prefers-color-scheme: dark) { :root { filter: none; } }
</style></svg>